<svg xmlns="http://www.w3.org/2000/svg" width="256" height="256" viewBox="0 0 100 100"><rect width="100" height="100" rx="20" fill="#7d6ee7"></rect><path fill="#fff" d="M9.41 73.27Q8.38 70.88 7.93 67.69Q7.48 64.49 7.48 58.73Q7.48 52.97 9.64 43.16L9.64 43.16L5.59 43.16Q4.51 43.16 4.51 42.26L4.51 42.26Q4.51 40.10 4.91 38.71Q5.32 37.31 6.85 35.51L6.85 35.51L9.01 35.51Q10.27 35.51 11.71 35.42L11.71 35.42Q16.03 21.56 20.53 21.56L20.53 21.56Q24.13 21.65 25.57 26.15L25.57 26.15Q25.93 27.41 26.38 28.85L26.38 28.85L22.69 35.33Q28.98 35.51 30.65 35.51Q32.32 35.51 32.45 35.83Q32.59 36.14 32.59 36.77L32.59 36.77Q32.59 38.39 31.82 40.82Q31.05 43.25 30.07 43.16L30.07 43.16L21.07 42.71Q19.18 53.69 19.18 60.89Q19.18 68.09 21.25 68.09L21.25 68.09Q22.96 68.09 27.46 65.25Q31.96 62.42 33.94 59.81Q35.92 57.20 37.18 57.20L37.18 57.20Q38.44 57.20 38.44 60.26Q38.44 63.32 36.28 66.52Q34.12 69.71 30.83 72.37Q27.55 75.02 23.54 76.73Q19.54 78.44 16.57 78.44Q13.60 78.44 12.02 77.05Q10.45 75.65 9.41 73.27ZM37.94 73.27Q36.91 70.88 36.45 67.69Q36.00 64.49 36.00 58.73Q36.00 52.97 38.16 43.16L38.16 43.16L34.12 43.16Q33.03 43.16 33.03 42.26L33.03 42.26Q33.03 40.10 33.44 38.71Q33.84 37.31 35.38 35.51L35.38 35.51L37.53 35.51Q38.80 35.51 40.23 35.42L40.23 35.42Q44.55 21.56 49.05 21.56L49.05 21.56Q52.66 21.65 54.09 26.15L54.09 26.15Q54.45 27.41 54.91 28.85L54.91 28.85L51.22 35.33Q57.52 35.51 59.18 35.51Q60.84 35.51 60.98 35.83Q61.11 36.14 61.11 36.77L61.11 36.77Q61.11 38.39 60.35 40.82Q59.58 43.25 58.59 43.16L58.59 43.16L49.59 42.71Q47.70 53.69 47.70 60.89Q47.70 68.09 49.77 68.09L49.77 68.09Q51.48 68.09 55.98 65.25Q60.48 62.42 62.47 59.81Q64.44 57.20 65.70 57.20L65.70 57.20Q66.97 57.20 66.97 60.26Q66.97 63.32 64.81 66.52Q62.64 69.71 59.36 72.37Q56.08 75.02 52.07 76.73Q48.06 78.44 45.09 78.44Q42.13 78.44 40.55 77.05Q38.98 75.65 37.94 73.27ZM66.47 73.27Q65.44 70.88 64.98 67.69Q64.53 64.49 64.53 58.73Q64.53 52.97 66.69 43.16L66.69 43.16L62.65 43.16Q61.56 43.16 61.56 42.26L61.56 42.26Q61.56 40.10 61.97 38.71Q62.38 37.31 63.91 35.51L63.91 35.51L66.06 35.51Q67.33 35.51 68.77 35.42L68.77 35.42Q73.09 21.56 77.59 21.56L77.59 21.56Q81.19 21.65 82.63 26.15L82.63 26.15Q82.98 27.41 83.44 28.85L83.44 28.85L79.75 35.33Q86.05 35.51 87.71 35.51Q89.38 35.51 89.51 35.83Q89.64 36.14 89.64 36.77L89.64 36.77Q89.64 38.39 88.88 40.82Q88.11 43.25 87.13 43.16L87.13 43.16L78.13 42.71Q76.23 53.69 76.23 60.89Q76.23 68.09 78.31 68.09L78.31 68.09Q80.02 68.09 84.52 65.25Q89.02 62.42 91.00 59.81Q92.97 57.20 94.23 57.20L94.23 57.20Q95.50 57.20 95.50 60.26Q95.50 63.32 93.34 66.52Q91.17 69.71 87.89 72.37Q84.61 75.02 80.60 76.73Q76.59 78.44 73.63 78.44Q70.66 78.44 69.08 77.05Q67.50 75.65 66.47 73.27Z"></path></svg>